<svg width="14" height="15" viewBox="0 0 14 15" fill="none" xmlns="http://www.w3.org/2000/svg">
<path fill-rule="evenodd" clip-rule="evenodd" d="M10 6.23333C10 6.81553 9.89137 7.39202 9.6803 7.9299C9.46923 8.46777 9.15986 8.9565 8.76986 9.36817C8.37985 9.77985 7.91685 10.1064 7.40728 10.3292C6.89771 10.552 6.35156 10.6667 5.80001 10.6667C5.24846 10.6667 4.70231 10.552 4.19274 10.3292C3.68317 10.1064 3.22017 9.77985 2.83016 9.36817C2.44016 8.9565 2.13079 8.46777 1.91972 7.9299C1.70865 7.39202 1.60001 6.81553 1.60001 6.23333C1.60001 5.05754 2.04251 3.9299 2.83016 3.09849C3.61782 2.26708 4.6861 1.8 5.80001 1.8C6.91392 1.8 7.98221 2.26708 8.76986 3.09849C9.55751 3.9299 10 5.05754 10 6.23333ZM9.17081 10.6869C8.09251 11.5963 6.72529 12.0352 5.34993 11.9138C3.97458 11.7923 2.69549 11.1195 1.77538 10.0336C0.855262 8.94779 0.363955 7.53126 0.402362 6.07499C0.440768 4.61872 1.00597 3.23324 1.98189 2.2031C2.95782 1.17296 4.27037 0.576353 5.65 0.535813C7.02963 0.495273 8.3716 1.01387 9.4003 1.98511C10.429 2.95634 11.0664 4.30649 11.1815 5.75825C11.2966 7.21001 10.8807 8.65319 10.0192 9.7914L13.4248 13.3849C13.4806 13.4438 13.5248 13.5137 13.555 13.5907C13.5852 13.6676 13.6008 13.7501 13.6008 13.8333C13.6008 13.9166 13.5852 13.9991 13.555 14.076C13.5248 14.1529 13.4806 14.2228 13.4248 14.2817C13.369 14.3406 13.3028 14.3873 13.2299 14.4192C13.157 14.4511 13.0789 14.4675 13 14.4675C12.9211 14.4675 12.843 14.4511 12.7701 14.4192C12.6972 14.3873 12.631 14.3406 12.5752 14.2817L9.17201 10.6869H9.17081Z" fill="black"/>
</svg>
